HIERARCHY
ROOT ui
{
	 OFFSET 0 0 0
	 CHANNELS 3 XPosition YPosition Z Position
	 EndSite
	 {
	 OFFSET 0 -1 0
	 }
}
ROOT li
{
	 OFFSET 0 0 0
	 CHANNELS 3 XPosition YPosition Z Position
	 EndSite
	 {
	 OFFSET 0 -1 0
	 }
}
ROOT ul
{
	 OFFSET 0 0 0
	 CHANNELS 3 XPosition YPosition Z Position
	 EndSite
	 {
	 OFFSET 0 -1 0
	 }
}
ROOT ll
{
	 OFFSET 0 0 0
	 CHANNELS 3 XPosition YPosition Z Position
	 EndSite
	 {
	 OFFSET 0 -1 0
	 }
}
ROOT tt
{
	 OFFSET 0 0 0
	 CHANNELS 3 XPosition YPosition Z Position
	 EndSite
	 {
	 OFFSET 0 -1 0
	 }
}
ROOT tb
{
	 OFFSET 0 0 0
	 CHANNELS 3 XPosition YPosition Z Position
	 EndSite
	 {
	 OFFSET 0 -1 0
	 }
}
ROOT td
{
	 OFFSET 0 0 0
	 CHANNELS 3 XPosition YPosition Z Position
	 EndSite
	 {
	 OFFSET 0 -1 0
	 }
}
ROOT v
{
	 OFFSET 0 0 0
	 CHANNELS 3 XPosition YPosition Z Position
	 EndSite
	 {
	 OFFSET 0 -1 0
	 }
}
ROOT bn
{
	 OFFSET 0 0 0
	 CHANNELS 3 XPosition YPosition Z Position
	 EndSite
	 {
	 OFFSET 0 -1 0
	 }
}
MOTION
Frames: 10
Frame Time: 0.002
0.04227584838867188	-0.007109217166900635	0		0.6179533081054688	-2.574911376953125	0		-1.0895506591796875	-0.13990489196777345	0		-0.49026132202148437	-2.47312548828125	0		2.137267333984375	-1.55555517578125	0		3.42335693359375	-0.3925906066894531	0		4.735556640625	0.1647443084716797	0		5.909697265625	0.5094241027832032	0		-0.1995978240966797	5.9077822265625	0		
-0.03475527572631836	0.0034051899909973145	0		0.5689581909179687	-2.565932373046875	0		-1.146876708984375	-0.1448068389892578	0		-0.4765456237792969	-2.479406005859375	0		2.10942041015625	-1.5379537353515624	0		3.41245947265625	-0.3762919311523438	0		4.72121484375	0.15913725280761717	0		5.898001953125	0.494653564453125	0		-0.3171737365722656	5.89807958984375	0		
0.0449183349609375	-0.004158605098724366	0		0.5958019409179688	-2.567444091796875	0		-1.1389310302734375	-0.13798928833007812	0		-0.5064970397949219	-2.469828125	0		2.090875244140625	-1.506533203125	0		3.40217919921875	-0.38100930786132814	0		4.719978515625	0.1572745361328125	0		5.9015693359375	0.5120352172851562	0		-0.3155686950683594	5.89503662109375	0		
-0.023072406768798827	0.005174527168273926	0		0.57384423828125	-2.559997802734375	0		-1.136030029296875	-0.13507293701171874	0		-0.469625	-2.471561279296875	0		2.098964599609375	-1.495638916015625	0		3.413828125	-0.3401480712890625	0		4.71497216796875	0.1654867401123047	0		5.91271044921875	0.4927190246582031	0		-0.3509418029785156	5.8917177734375	0		
0.0397311897277832	9.465169906616211E-4	0		0.5837774047851563	-2.56017626953125	0		-1.106294921875	-0.14268159484863283	0		-0.4737693786621094	-2.475489990234375	0		2.05725390625	-1.4757684326171876	0		3.35876025390625	-0.3369891662597656	0		4.6927685546875	0.16203268432617188	0		5.89930859375	0.523016845703125	0		-0.1856914520263672	5.916482421875	0		
-0.03532603454589844	0.0034155409336090086	0		0.558810791015625	-2.556670654296875	0		-1.1392982177734374	-0.13806036376953126	0		-0.4748402099609375	-2.477477294921875	0		2.05756884765625	-1.4567188720703126	0		3.375751953125	-0.3332375183105469	0		4.68267529296875	0.16234397888183594	0		5.89553857421875	0.5061419372558593	0		-0.20011611938476562	5.90675732421875	0		
0.04142571258544922	-0.007079885005950927	0		0.59357373046875	-2.569332275390625	0		-1.123492431640625	-0.14539344787597655	0		-0.49895098876953126	-2.4830146484375	0		2.0190018310546876	-1.4329083251953125	0		3.363074951171875	-0.31390133666992187	0		4.672615234375	0.1626567840576172	0		5.89549658203125	0.5063986511230468	0		-0.20031649780273436	5.9067578125	0		
-0.030510238647460938	-0.0016717300415039062	0		0.544772705078125	-2.560359619140625	0		-1.1066756591796876	-0.1537440643310547	0		-0.46194561767578124	-2.4847412109375	0		2.024513916015625	-1.406956298828125	0		3.360503173828125	-0.29076080322265624	0		4.67671923828125	0.1696954345703125	0		5.89918212890625	0.5237838745117187	0		-0.3527879943847656	5.8927216796875	0		
0.04261124420166015	0.00391353988647461	0		0.587920654296875	-2.556177001953125	0		-1.11539892578125	-0.13959030151367188	0		-0.5317586669921875	-2.47738427734375	0		1.9798460693359374	-1.391029541015625	0		3.339532470703125	-0.28926705932617186	0		4.6636005859375	0.16406558227539061	0		5.9067333984375	0.48734317016601564	0		-0.31881597900390624	5.89805810546875	0		
-0.03049017906188965	-0.0016566929817199707	0		0.5859602661132812	-2.558115234375	0		-1.1194324951171875	-0.1425277099609375	0		-0.46590850830078123	-2.489667236328125	0		1.98028662109375	-1.370979736328125	0		3.35992529296875	-0.2705751647949219	0		4.66361767578125	0.16417922973632812	0		5.89642529296875	0.5347955932617188	0		-0.18654403686523438	5.9164921875	0		
